<svg width="469" height="450" viewBox="0 0 469 450" fill="none" xmlns="http://www.w3.org/2000/svg">
<path d="M216.86 26.2432C214.502 24.3437 196.928 29.7187 188.436 32.6436L171.803 11.7909L150.432 17.5718L154.011 42.5539L124.323 58.8646L106.006 42.5539L85.2663 54.2191L97.6888 83.8467L75.7916 104.183L52.1047 91.3826L34.3132 114.61L56.2104 135.566L45.5776 158.793H15.8901L11.7843 180.368L34.3132 193.685L30.1022 221.042L2.83594 230.849L6.41529 250.669L37.2609 256.45L45.5776 281.432L20.1011 297.743L30.1022 319.215L56.2104 315.705L72.2122 337.797L56.2104 359.889L72.2122 375.58L102.426 366.908L124.323 383.735L118.428 413.982L137.378 426.783L157.59 404.691L183.067 413.982L187.804 441.855L212.123 446.5L223.914 420.898H252.97L264.234 446.5L289.184 441.855C287.991 432.564 286.321 413.982 289.184 413.982C292.048 413.982 308.555 407.788 316.451 404.691L337.19 426.783L358.455 413.982L353.192 383.735L373.299 366.908L399.407 379.09L414.777 359.889L399.407 337.797L414.777 315.705L444.465 319.215L453.308 297.743L427.832 281.432L434.99 256.45L465.836 250.669V230.849L434.99 221.042V196.06L462.257 180.368L457.519 158.793H422.463L414.777 135.566L434.99 114.61L422.463 94.8925L392.88 104.183L376.878 83.8467L387.511 58.8646L368.562 42.5539C362.245 47.6123 348.791 57.9561 345.506 58.8646C342.222 59.773 326.311 51.8792 318.767 47.8188L322.346 17.5718L302.238 11.7909C296.694 20.4967 285.015 36.8555 282.657 32.6436C280.299 28.4316 264.269 26.6217 256.549 26.2432L247.706 2.5H226.335C224.159 11.2058 219.218 28.1427 216.86 26.2432Z" fill="#EDDEBB" stroke="#1A1A1A" stroke-width="5"/>
<path d="M234.336 53C331.599 53 410.336 129.843 410.336 224.5C410.336 319.157 331.599 396 234.336 396C137.073 396 58.3359 319.157 58.3359 224.5C58.3359 129.843 137.073 53 234.336 53Z" fill="#322611" fill-opacity="0.95" stroke="#1A1A1A" stroke-width="5"/>
<path d="M233.336 117.5C255.703 117.5 273.836 136.304 273.836 159.5C273.836 174.541 266.21 187.733 254.75 195.151L280.836 331.5H187.836L211.565 194.921C200.304 187.461 192.836 174.385 192.836 159.5C192.836 136.304 210.968 117.5 233.336 117.5Z" fill="#EDDEBB"/>
</svg>
